<svg width="128" height="41" fill="none" xmlns="http://www.w3.org/2000/svg">
  <g clip-path="url(#clip0)">
    <path d="M39.4668 7.55198v2.64532h3.9254v2.176h-3.9254v5.76h-2.4746V5.37598h7.68v2.176h-5.2054zM51.3282 11.3922c-.1707-.0427-.512-.0853-.8534-.0853-1.024 0-1.8773.768-2.1333 1.28v5.5466h-2.3894V9.30153h2.2614v.89597c.512-.63997 1.4933-1.06664 2.56-1.06664.3413 0 .5547.04267.8107.08533l-.256 2.17601zM54.6136 4.65039c.8534 0 1.536.64 1.536 1.536s-.6826 1.49333-1.536 1.49333c-.8533 0-1.536-.64-1.536-1.49333s.6827-1.536 1.536-1.536zm1.1947 13.48271H53.419V9.30106h2.3893v8.83204zM62.2507 14.6775l2.432-5.41871h2.4747L63.104 18.0908h-1.6639l-4.0534-8.83201h2.4747l2.3893 5.41871zM69.888 4.65039c.8533 0 1.536.64 1.536 1.536s-.6827 1.49333-1.536 1.49333c-.8533 0-1.5359-.64-1.5359-1.49333s.6826-1.536 1.5359-1.536zm1.1947 13.48271h-2.3893V9.30106h2.3893v8.83204zM76.1601 18.1328h-2.3466V5.16211h2.3893V18.1328h-.0427zM81.2803 18.1328h-2.3467V5.16211h2.3893V18.1328h-.0426zM85.2054 4.65039c.8533 0 1.5359.64 1.5359 1.536s-.6826 1.49333-1.5359 1.49333c-.8533 0-1.536-.64-1.536-1.49333s.6827-1.536 1.536-1.536zM86.4 18.1331h-2.3892V9.30106H86.4v8.83204zM97.6215 17.6212c0 1.5787-.256 2.5174-.8107 3.2854-.8107 1.1093-2.2187 1.7493-3.9253 1.7493-1.7494 0-3.3707-.8107-4.2667-1.8347l1.4933-1.536c.4694.512 1.28 1.28 2.7734 1.28.768 0 1.408-.256 1.792-.7253.384-.384.5546-.9387.5546-2.0907v-.256c-.7253.5547-1.4933.8107-2.3893.8107-1.3227 0-2.56-.5973-3.3707-1.4933-.6826-.8107-1.1093-1.8774-1.1093-3.1147 0-2.6027 1.92-4.60801 4.352-4.60801 1.024 0 1.8773.34133 2.6027.896v-.72533h2.2613v8.36264h.0427zm-2.3894-5.248c-.512-.64-1.28-1.1093-2.176-1.1093-1.408 0-2.2613 1.152-2.2613 2.432 0 1.408 1.024 2.3893 2.3467 2.3893.896 0 1.664-.4266 2.1333-1.1093v-2.6027h-.0427zM102.741 18.1328h-2.389V5.16211h2.389v4.736c.64-.512 1.494-.81067 2.39-.81067 1.237 0 2.346.55467 3.072 1.40796.597.6827.896 1.5787.896 3.1147v4.5227h-2.39v-4.6934c0-.896-.213-1.3226-.512-1.664-.298-.2986-.768-.512-1.322-.512-1.024 0-1.835.64-2.134 1.1094v5.76zM119.211 16.7252c-.853 1.024-2.261 1.5787-3.627 1.5787-2.645 0-4.65-1.8347-4.65-4.608 0-2.4747 1.664-4.60801 4.309-4.60801 2.432 0 4.181 2.04801 4.181 4.52271 0 .256 0 .4693-.042.6826h-6.144c.128 1.2374 1.152 2.0907 2.389 2.0907 1.024 0 1.792-.5547 2.219-1.024l1.365 1.3653zm-2.219-4.1386c-.085-.768-.768-1.536-1.749-1.536-.981 0-1.792.768-1.877 1.536h3.626zM127.915 18.1328c-.299.128-1.024.1707-1.493.1707-1.408 0-2.475-.4693-3.072-1.28-.47-.5973-.64-1.408-.64-2.6453v-3.1147h-2.475V9.25817h2.475v-2.432h2.389v2.47467H128v2.00536h-2.901v3.3706c0 .5547.085.896.299 1.1094.256.256.64.4266 1.194.4266.342 0 .811-.0426.982-.0853l.341 2.0053zM37.0349 22.6553h1.7493l7.1253 8.32v-8.32h2.4747v12.7573h-1.7494l-7.1679-8.32v8.32h-2.4747V22.6553h.0427zM55.1255 26.4102c2.688 0 4.6933 2.048 4.6933 4.608 0 2.56-2.0053 4.608-4.6933 4.608-2.688 0-4.6934-2.048-4.6934-4.608 0-2.56 2.0054-4.608 4.6934-4.608zm0 6.9973c1.408 0 2.3466-1.0667 2.3466-2.3893 0-1.3227-.9386-2.432-2.3466-2.432s-2.3467 1.1093-2.3467 2.432c.0427 1.3226.9813 2.3893 2.3467 2.3893zM67.2427 28.6715c-.1707-.0427-.512-.0853-.8533-.0853-1.024 0-1.8774.768-2.1334 1.28v5.5466h-2.3893v-8.832h2.2613v.896c.512-.64 1.4934-1.0666 2.56-1.0666.3414 0 .5547.0426.8107.0853l-.256 2.176zM77.5258 34.9432c0 1.5787-.256 2.5173-.8107 3.2853-.8106 1.1094-2.2187 1.7494-3.9253 1.7494-1.7494 0-3.3707-.8107-4.2667-1.8347l1.4933-1.536c.4694.512 1.28 1.28 2.7734 1.28.768 0 1.408-.256 1.792-.7253.384-.384.5546-.9387.5546-2.0907v-.2987c-.7253.5547-1.4933.8107-2.3893.8107-1.3227 0-2.56-.5973-3.3707-1.4933-.6826-.8107-1.1093-1.8774-1.1093-3.1147 0-2.6027 1.92-4.608 4.352-4.608 1.024 0 1.8773.3413 2.6027.896v-.7253h2.2613v8.4053h.0427zm-2.3467-5.248c-.512-.64-1.28-1.1093-2.176-1.1093-1.408 0-2.2613 1.152-2.2613 2.432 0 1.408 1.024 2.3893 2.3466 2.3893.896 0 1.664-.4267 2.1334-1.1093v-2.6027h-.0427zM87.8081 34.0475c-.8533 1.024-2.2613 1.5787-3.6266 1.5787-2.6454 0-4.6507-1.8347-4.6507-4.608 0-2.4747 1.664-4.608 4.3093-4.608 2.432 0 4.1814 2.048 4.1814 4.5226 0 .256 0 .4694-.0427.6827h-6.144c.128 1.2373 1.152 2.0907 2.3893 2.0907 1.024 0 1.792-.5547 2.2187-1.024l1.3653 1.3653zm-2.176-4.1813c-.0853-.768-.768-1.536-1.7493-1.536-.9813 0-1.792.768-1.8774 1.536h3.6267z" fill="#030925"></path>
    <path d="M7.12541 40.064c-1.83467 0-3.66933-.6827-5.03467-2.0907-2.773331-2.7733-2.773331-7.296 0-10.0693L13.3974 16.5973l6.4427-6.4426c1.664-1.66405 1.664-4.39471 0-6.05871-1.664-1.664-4.3947-1.664-6.0587 0l-1.8347 1.83467-1.8346-1.83467c-1.66402-1.664-4.39469-1.664-6.05869 0-1.664 1.664-1.664 4.39466 0 6.05871l4.30933 4.3093-1.96266 2.0053L2.09074 12.16c-2.773331-2.77334-2.773331-7.29601 0-10.06934 2.688-2.73067 7.08267-2.773337 9.85596-.21334 2.7734-2.602664 7.168-2.51733 9.8987.21334 2.7733 2.77333 2.7733 7.296 0 10.06934L10.5387 23.4667l-6.44262 6.4426c-1.664 1.664-1.664 4.3947 0 6.0587 1.664 1.664 4.39466 1.664 6.05862 0l1.792-1.8347 1.8347 1.8347c1.664 1.664 4.3947 1.664 6.0587 0 1.664-1.664 1.664-4.3947 0-6.0587L15.5307 25.6l2.0054-2.0053 4.3093 4.3093c2.7733 2.7733 2.7733 7.296 0 10.0693-2.7307 2.7307-7.0827 2.7734-9.8987.2134-1.3653 1.2373-3.07196 1.8773-4.82129 1.8773z" fill="#E25858"></path>
  </g>
  <defs>
    <clipPath id="clip0">
      <path fill="#fff" d="M0 0h128v40.064H0z"></path>
    </clipPath>
  </defs>
</svg>