<?xml version="1.0" encoding="utf-8"?>
<!-- Generator: Adobe Illustrator 19.1.0, SVG Export Plug-In . SVG Version: 6.00 Build 0)  -->
<svg version="1.1" id="Layer_1" xmlns="http://www.w3.org/2000/svg" xmlns:xlink="http://www.w3.org/1999/xlink" x="0px" y="0px"
	 width="388.3px" height="84.5px" viewBox="-512 511.5 388.3 84.5" style="enable-background:new -512 511.5 388.3 84.5;"
	 xml:space="preserve">
<style type="text/css">
	    /* <![CDATA[ */
	.st0{fill:#422447;}
	.st1{fill:#00A27E;}
	.st2{fill:#001723;}
	.st3{fill:#29ABE2;}
	.st4{fill:#F47C28;}
	.st5{fill:#3F120B;}
	    /* ]]> */
</style>
<g>
	<g>
		<polygon class="st0" points="-397,563.4 -409.2,536.3 -419.4,536.3 -401.2,576.1 -397,563.5 		"/>
		<polygon class="st1" points="-384.9,536.3 -397,563.4 -397.1,563.6 -392.8,576.2 -374.7,536.3 		"/>
		<polygon class="st2" points="-401.3,576.3 -392.8,576.3 -397.1,563.8 		"/>
		<polygon class="st0" points="-427,536.3 -427,576.3 -437,576.3 -437,536.3 		"/>
		<rect x="-367" y="536.3" class="st0" width="9" height="40"/>
		<polygon class="st0" points="-336,516.3 -336,576.3 -346,576.3 -346,516.3 		"/>
		<polygon class="st0" points="-315,516.3 -315,576.3 -325,576.3 -325,516.3 		"/>
		<path class="st3" d="M-431.8,515.7c-1.7,0-3.1,0.6-4.3,1.7c-1.2,1.2-1.8,2.6-1.8,4.3c0,1.6,0.6,3,1.8,4.1c1.2,1.1,2.6,1.7,4.3,1.7
			c1.7,0,3.1-0.6,4.3-1.7c1.2-1.1,1.8-2.5,1.8-4.1c0-1.7-0.6-3.1-1.8-4.3C-428.7,516.3-430.1,515.7-431.8,515.7"/>
		<path class="st3" d="M-362.4,515.7c-1.7,0-3.1,0.6-4.3,1.7c-1.2,1.2-1.8,2.6-1.8,4.3c0,1.6,0.6,3,1.8,4.1c1.2,1.1,2.6,1.7,4.3,1.7
			s3.1-0.6,4.3-1.7c1.2-1.1,1.8-2.5,1.8-4.1c0-1.7-0.6-3.1-1.8-4.3C-359.3,516.3-360.7,515.7-362.4,515.7"/>
		<path class="st3" d="M-298.3,515.7c-1.7,0-3.1,0.6-4.3,1.7c-1.2,1.2-1.8,2.6-1.8,4.3c0,1.6,0.6,3,1.8,4.1c1.2,1.1,2.6,1.7,4.3,1.7
			c1.7,0,3.1-0.6,4.3-1.7c1.2-1.1,1.8-2.5,1.8-4.1c0-1.7-0.6-3.1-1.8-4.3C-295.2,516.3-296.6,515.7-298.3,515.7"/>
		<polygon class="st0" points="-294,536.3 -294,576.3 -303,576.3 -303,536.3 		"/>
		<path class="st0" d="M-253,560.3v-11.6v-10.4v-2h10v39.8c0,6.1-1.9,10.9-5.6,14.5c-3.7,3.6-8.5,5.4-14.4,5.4
			c-5.6,0-10.3-1.6-14-4.8c-3.8-3.2-6-7-6.3-12h9.8c0.3,3,1.4,4.3,3.3,5.7c1.9,1.4,4.3,2.1,7.3,2.1c3.2,0,5.5-1,7.4-3
			c1.9-2,2.6-4.7,2.6-8.1v-5V560.3L-253,560.3L-253,560.3z"/>
		<polygon class="st0" points="-461,551.3 -461,576.3 -470,576.3 -470,536.3 -461,536.3 -461,541.2 		"/>
		<path class="st1" d="M-446,537.2c0,0-11,1.9-15,5.8v8.3v1.8c4-4.2,9-6.4,15-6.6V537.2L-446,537.2z"/>
		<path class="st4" d="M-265,536.8c-5.6,0-10.2,1.9-14,5.8c-3.8,3.8-5.7,8.7-5.7,14.6c0,5.2,1.9,9.9,5.8,13.9
			c3.9,3.9,8.5,5.9,13.9,5.9c4.7,0,9-1.2,12-3.7v-2.2V563c-2,3.7-6,5.6-10.6,5.6c-3.2,0-5.9-1.2-8.2-3.5c-2.2-2.3-3.3-4.9-3.3-7.9
			c0-3.4,1.1-6.3,3.3-8.6s4.8-3.5,8.2-3.5c4.5,0,8.6,1.9,10.6,5.7v-2.1v-8.2C-256,538-260.3,536.8-265,536.8"/>
		<rect x="-512" y="536.3" class="st4" width="12" height="8"/>
		<rect x="-491" y="536.3" class="st4" width="15" height="8"/>
		<path class="st0" d="M-491,528.6c0-2.5,1-4.5,2.5-5.9c1.5-1.5,3.6-2.2,6.1-2.2c1.5,0,3.5,0.3,5.9,0.8l1.4-8.5
			c-3-0.9-6.1-1.3-9.2-1.3c-4.8,0-8.5,1.6-11.5,4.7c-2.9,3.2-4.3,7.3-4.3,12.3v7.8h9V528.6z"/>
		<rect x="-500" y="544.3" class="st0" width="9" height="32"/>
		<rect x="-500" y="536.3" class="st5" width="9" height="8"/>
	</g>
	<path class="st1" d="M-234.6,571.5c0-1.6,0.6-3,1.7-4.1c1.2-1.1,2.6-1.6,4.3-1.6c1.7,0,3.1,0.5,4.3,1.6c1.2,1.1,1.8,2.5,1.8,4.1
		c0,1.7-0.6,3.1-1.8,4.2c-1.2,1.1-2.6,1.6-4.3,1.6c-1.7,0-3.1-0.5-4.3-1.6C-234.1,574.6-234.6,573.2-234.6,571.5z"/>
	<path class="st0" d="M-123.7,556c0,6.1-2,11.1-6.1,15.2c-4.1,4-9.1,6-15.1,6s-11.1-2-15.2-6c-4-4-6.1-9.1-6.1-15.2
		c0-6,2-10.9,6.1-14.9s9.2-6,15.2-6c6.1,0,11.1,2,15.1,6C-125.7,545.1-123.7,550-123.7,556z M-133.4,556c0-3.4-1.1-6.3-3.2-8.6
		c-2.2-2.3-4.9-3.5-8.2-3.5c-3.4,0-6.2,1.2-8.3,3.5c-2.2,2.3-3.2,5.2-3.2,8.6c0,3.4,1.1,6.4,3.2,8.8c2.2,2.4,5,3.5,8.4,3.5
		s6.2-1.2,8.3-3.5C-134.5,562.4-133.4,559.4-133.4,556z"/>
	<path class="st0" d="M-179.1,540c-3.2-3.5-7.3-5.2-12.6-5.2c-4.6,0-9.2,1.5-12.2,4.6v-3.1h-10v40h10v-26.9c3-3.8,6.5-5.7,10.2-5.7
		c3,0,5.4,0.9,7.2,2.8c1.7,1.9,2.6,4.6,2.6,8.1v21.7h10V554C-175,548.1-175.9,543.5-179.1,540z"/>
</g>
</svg>
