<svg width="109" height="26" viewBox="0 0 109 26" fill="none" xmlns="http://www.w3.org/2000/svg">
<path d="M16.2891 21.7246H10.7695L5.55469 14.7402L4.5 16.0176V21.7246H0V4.27539H4.5V12.1738L10.7344 4.27539H15.9492L9.12891 12.3496L16.2891 21.7246Z" fill="black"/>
<path d="M35.4844 13.0059C35.4844 15.7871 34.6875 17.998 33.0938 19.6387C31.5 21.2715 29.2969 22.0879 26.4844 22.0879C23.6797 22.0879 21.4805 21.2715 19.8867 19.6387C18.293 17.998 17.4961 15.7871 17.4961 13.0059C17.4961 10.2012 18.293 7.98633 19.8867 6.36133C21.4805 4.72852 23.6797 3.91211 26.4844 3.91211C29.2812 3.91211 31.4805 4.72852 33.082 6.36133C34.6836 7.98633 35.4844 10.2012 35.4844 13.0059ZM29.5195 17.4238C29.957 16.8926 30.2812 16.2676 30.4922 15.5488C30.7031 14.8223 30.8086 13.9707 30.8086 12.9941C30.8086 11.9473 30.6875 11.0566 30.4453 10.3223C30.2031 9.58789 29.8867 8.99414 29.4961 8.54102C29.0977 8.07227 28.6367 7.73242 28.1133 7.52148C27.5977 7.31055 27.0586 7.20508 26.4961 7.20508C25.9258 7.20508 25.3867 7.30664 24.8789 7.50977C24.3789 7.71289 23.918 8.04883 23.4961 8.51758C23.1055 8.95508 22.7852 9.56055 22.5352 10.334C22.293 11.0996 22.1719 11.9902 22.1719 13.0059C22.1719 14.0449 22.2891 14.9316 22.5234 15.666C22.7656 16.3926 23.082 16.9863 23.4727 17.4473C23.8633 17.9082 24.3203 18.248 24.8438 18.4668C25.3672 18.6855 25.918 18.7949 26.4961 18.7949C27.0742 18.7949 27.625 18.6855 28.1484 18.4668C28.6719 18.2402 29.1289 17.8926 29.5195 17.4238Z" fill="black"/>
<path d="M53.8594 16.3809C53.8594 17.2246 53.6875 17.9785 53.3438 18.6426C53.0078 19.3066 52.543 19.8574 51.9492 20.2949C51.2617 20.8105 50.5039 21.1777 49.6758 21.3965C48.8555 21.6152 47.8125 21.7246 46.5469 21.7246H38.9297V4.27539H45.7031C47.1094 4.27539 48.1367 4.32227 48.7852 4.41602C49.4414 4.50977 50.0898 4.7168 50.7305 5.03711C51.3945 5.37305 51.8867 5.82617 52.207 6.39648C52.5352 6.95898 52.6992 7.60352 52.6992 8.33008C52.6992 9.17383 52.4766 9.91992 52.0312 10.5684C51.5859 11.209 50.957 11.709 50.1445 12.0684V12.1621C51.2852 12.3887 52.1875 12.8574 52.8516 13.5684C53.5234 14.2793 53.8594 15.2168 53.8594 16.3809ZM48.0938 9.20898C48.0938 8.91992 48.0195 8.63086 47.8711 8.3418C47.7305 8.05273 47.4766 7.83789 47.1094 7.69727C46.7812 7.57227 46.3711 7.50586 45.8789 7.49805C45.3945 7.48242 44.7109 7.47461 43.8281 7.47461H43.4062V11.166H44.1094C44.8203 11.166 45.4258 11.1543 45.9258 11.1309C46.4258 11.1074 46.8203 11.0293 47.1094 10.8965C47.5156 10.7168 47.7812 10.4863 47.9062 10.2051C48.0312 9.91602 48.0938 9.58398 48.0938 9.20898ZM49.1953 16.3105C49.1953 15.7559 49.0859 15.3301 48.8672 15.0332C48.6562 14.7285 48.293 14.502 47.7773 14.3535C47.4258 14.252 46.9414 14.1973 46.3242 14.1895C45.707 14.1816 45.0625 14.1777 44.3906 14.1777H43.4062V18.5254H43.7344C45 18.5254 45.9062 18.5215 46.4531 18.5137C47 18.5059 47.5039 18.4043 47.9648 18.209C48.4336 18.0137 48.7539 17.7559 48.9258 17.4355C49.1055 17.1074 49.1953 16.7324 49.1953 16.3105Z" fill="black"/>
<path d="M69.7969 21.7246H57.2109V4.27539H61.7109V18.3496H69.7969V21.7246Z" fill="black"/>
<path d="M85.1367 21.7246H72.5156V4.27539H85.1367V7.65039H76.9922V10.6621H84.5508V14.0371H76.9922V18.3496H85.1367V21.7246Z" fill="black"/>
<path d="M98.707 9.61914C98.707 9.18164 98.6172 8.80664 98.4375 8.49414C98.2578 8.18164 97.9492 7.93555 97.5117 7.75586C97.207 7.63086 96.8516 7.55664 96.4453 7.5332C96.0391 7.50195 95.5664 7.48633 95.0273 7.48633H93.3984V12.1855H94.7812C95.5 12.1855 96.1016 12.1504 96.5859 12.0801C97.0703 12.0098 97.4766 11.8496 97.8047 11.5996C98.1172 11.3574 98.3438 11.0918 98.4844 10.8027C98.6328 10.5059 98.707 10.1113 98.707 9.61914ZM105.727 21.7246H100.23L95.4727 15.3262H93.3984V21.7246H88.9219V4.27539H96.4688C97.5 4.27539 98.3867 4.33398 99.1289 4.45117C99.8711 4.56836 100.566 4.82227 101.215 5.21289C101.871 5.60352 102.391 6.11133 102.773 6.73633C103.164 7.35352 103.359 8.13086 103.359 9.06836C103.359 10.3574 103.059 11.4082 102.457 12.2207C101.863 13.0332 101.012 13.709 99.9023 14.248L105.727 21.7246Z" fill="black"/>
</svg>
